<svg width="1151" height="154" viewBox="0 0 1151 154" fill="none" xmlns="http://www.w3.org/2000/svg">
<path d="M-0.000117099 51.25H26.2399L51.0449 124.23L81.3849 51.25H96.7599L126.895 124.23L151.7 51.25H178.145L140.22 153.75H113.98L89.1749 89.79L64.1649 153.75H37.9249L-0.000117099 51.25ZM243.019 74.62C239.739 74.62 236.596 75.235 233.589 76.465C230.719 77.5583 228.054 79.13 225.594 81.18C223.271 83.0933 221.289 85.4167 219.649 88.15C218.146 90.8833 217.189 93.8217 216.779 96.965H269.259C268.166 90.5417 265.159 85.2117 260.239 80.975C255.456 76.7383 249.716 74.62 243.019 74.62ZM216.779 106.19C217.189 109.333 218.146 112.272 219.649 115.005C221.289 117.738 223.271 120.13 225.594 122.18C228.054 124.23 230.719 125.87 233.589 127.1C236.596 128.193 239.739 128.74 243.019 128.74C246.299 128.74 249.443 128.193 252.449 127.1C255.456 125.87 258.121 124.23 260.444 122.18L279.099 139.195C274.316 143.705 268.849 147.258 262.699 149.855C256.549 152.452 249.989 153.75 243.019 153.75C235.913 153.75 229.148 152.383 222.724 149.65C216.438 146.917 210.903 143.227 206.119 138.58C201.473 133.797 197.783 128.262 195.049 121.975C192.316 115.552 190.949 108.787 190.949 101.68C190.949 94.5733 192.316 87.8767 195.049 81.59C197.783 75.1667 201.473 69.6317 206.119 64.985C210.903 60.2017 216.438 56.4433 222.724 53.71C229.148 50.9767 235.913 49.61 243.019 49.61C250.126 49.61 256.823 50.9767 263.109 53.71C269.533 56.4433 275.068 60.2017 279.714 64.985C284.498 69.6317 288.256 75.1667 290.989 81.59C293.723 87.8767 295.089 94.5733 295.089 101.68C295.089 102.5 295.089 103.32 295.089 104.14C295.089 104.823 295.021 105.507 294.884 106.19H216.779ZM369.501 128.33C373.328 128.33 376.881 127.647 380.161 126.28C383.441 124.777 386.311 122.795 388.771 120.335C391.231 117.875 393.145 115.005 394.511 111.725C396.015 108.308 396.766 104.755 396.766 101.065C396.766 97.2383 396.015 93.685 394.511 90.405C393.145 86.9883 391.231 84.05 388.771 81.59C386.311 79.13 383.441 77.2167 380.161 75.85C376.881 74.3467 373.328 73.595 369.501 73.595H342.031V101.065C342.031 104.892 342.715 108.445 344.081 111.725C345.585 115.005 347.566 117.875 350.026 120.335C352.486 122.795 355.356 124.777 358.636 126.28C362.053 127.647 365.675 128.33 369.501 128.33ZM369.501 48.175C376.745 48.175 383.578 49.61 390.001 52.48C396.425 55.2133 402.028 58.9717 406.811 63.755C411.595 68.5383 415.353 74.1417 418.086 80.565C420.956 86.9883 422.391 93.8217 422.391 101.065C422.391 108.308 420.956 115.142 418.086 121.565C415.353 127.988 411.595 133.592 406.811 138.375C402.028 143.158 396.425 146.917 390.001 149.65C383.578 152.383 376.745 153.75 369.501 153.75C362.121 153.75 355.22 152.383 348.796 149.65C342.51 146.917 336.975 143.158 332.191 138.375C327.408 133.592 323.65 127.988 320.916 121.565C318.183 115.142 316.816 108.308 316.816 101.065V-1.2219e-05H342.031L321.121 48.175H369.501ZM518.403 101.885C518.403 98.195 517.72 94.7783 516.353 91.635C514.987 88.355 513.073 85.485 510.613 83.025C508.153 80.565 505.283 78.6517 502.003 77.285C498.723 75.9183 495.238 75.235 491.548 75.235C487.858 75.235 484.373 75.9183 481.093 77.285C477.813 78.6517 474.943 80.565 472.483 83.025C470.16 85.485 468.247 88.355 466.743 91.635C465.377 94.7783 464.693 98.195 464.693 101.885C464.693 105.575 465.377 109.06 466.743 112.34C468.247 115.62 470.16 118.49 472.483 120.95C474.943 123.41 477.813 125.392 481.093 126.895C484.373 128.262 487.858 128.945 491.548 128.945C495.238 128.945 498.723 128.262 502.003 126.895C505.283 125.392 508.153 123.41 510.613 120.95C513.073 118.49 514.987 115.62 516.353 112.34C517.72 109.06 518.403 105.575 518.403 101.885ZM491.548 50.225C498.655 50.225 505.352 51.5917 511.638 54.325C517.925 57.0583 523.392 60.7483 528.038 65.395C532.822 70.0417 536.58 75.5083 539.313 81.795C542.047 88.0817 543.413 94.7783 543.413 101.885C543.413 108.992 542.047 115.757 539.313 122.18C536.58 128.467 532.822 133.933 528.038 138.58C523.392 143.227 517.925 146.917 511.638 149.65C505.352 152.383 498.655 153.75 491.548 153.75C484.442 153.75 477.745 152.383 471.458 149.65C465.172 146.917 459.705 143.227 455.058 138.58C450.412 133.933 446.722 128.467 443.988 122.18C441.255 115.757 439.888 108.992 439.888 101.885C439.888 94.7783 441.255 88.0817 443.988 81.795C446.722 75.5083 450.412 70.0417 455.058 65.395C459.705 60.7483 465.172 57.0583 471.458 54.325C477.745 51.5917 484.442 50.225 491.548 50.225ZM568.439 -1.2219e-05H593.244V153.75H568.439V-1.2219e-05ZM671.449 128.33C675.139 128.33 678.624 127.647 681.904 126.28C685.32 124.777 688.259 122.795 690.719 120.335C693.179 117.875 695.092 115.005 696.459 111.725C697.962 108.445 698.714 104.892 698.714 101.065V73.595H671.449C667.622 73.595 664 74.3467 660.584 75.85C657.304 77.2167 654.434 79.13 651.974 81.59C649.514 84.05 647.532 86.9883 646.029 90.405C644.662 93.685 643.979 97.2383 643.979 101.065C643.979 104.755 644.662 108.308 646.029 111.725C647.532 115.005 649.514 117.875 651.974 120.335C654.434 122.795 657.304 124.777 660.584 126.28C664 127.647 667.622 128.33 671.449 128.33ZM719.829 48.175L698.714 -1.2219e-05H724.134V101.065C724.134 108.308 722.767 115.142 720.034 121.565C717.3 127.988 713.542 133.592 708.759 138.375C703.975 143.158 698.372 146.917 691.949 149.65C685.525 152.383 678.692 153.75 671.449 153.75C664.205 153.75 657.372 152.383 650.949 149.65C644.525 146.917 638.922 143.158 634.139 138.375C629.355 133.592 625.529 127.988 622.659 121.565C619.925 115.142 618.559 108.308 618.559 101.065C618.559 93.8217 619.925 86.9883 622.659 80.565C625.529 74.1417 629.355 68.5383 634.139 63.755C638.922 58.9717 644.525 55.2133 650.949 52.48C657.372 49.61 664.205 48.175 671.449 48.175H719.829ZM798.621 73.39C794.794 73.39 791.172 74.1417 787.756 75.645C784.476 77.0117 781.606 78.9933 779.146 81.59C776.686 84.05 774.704 86.9883 773.201 90.405C771.834 93.685 771.151 97.17 771.151 100.86C771.151 104.687 771.834 108.308 773.201 111.725C774.704 115.005 776.686 117.875 779.146 120.335C781.606 122.795 784.476 124.777 787.756 126.28C791.172 127.647 794.794 128.33 798.621 128.33H825.886V100.86C825.886 97.0333 825.134 93.48 823.631 90.2C822.264 86.7833 820.351 83.845 817.891 81.385C815.431 78.925 812.492 77.0117 809.076 75.645C805.796 74.1417 802.311 73.39 798.621 73.39ZM798.621 153.75C791.377 153.75 784.544 152.383 778.121 149.65C771.697 146.78 766.094 142.953 761.311 138.17C756.527 133.387 752.701 127.783 749.831 121.36C747.097 114.937 745.731 108.103 745.731 100.86C745.731 93.6167 747.097 86.7833 749.831 80.36C752.701 73.9367 756.527 68.3333 761.311 63.55C766.094 58.7667 771.697 55.0083 778.121 52.275C784.544 49.5417 791.377 48.175 798.621 48.175C805.864 48.175 812.697 49.5417 819.121 52.275C825.544 55.0083 831.147 58.7667 835.931 63.55C840.714 68.3333 844.472 73.9367 847.206 80.36C849.939 86.7833 851.306 93.6167 851.306 100.86V153.75H798.621ZM880.488 -1.2219e-05H905.293V153.75H880.488V-1.2219e-05ZM983.497 73.39C979.67 73.39 976.049 74.1417 972.632 75.645C969.352 77.0117 966.482 78.9933 964.022 81.59C961.562 84.05 959.58 86.9883 958.077 90.405C956.71 93.685 956.027 97.17 956.027 100.86C956.027 104.687 956.71 108.308 958.077 111.725C959.58 115.005 961.562 117.875 964.022 120.335C966.482 122.795 969.352 124.777 972.632 126.28C976.049 127.647 979.67 128.33 983.497 128.33H1010.76V100.86C1010.76 97.0333 1010.01 93.48 1008.51 90.2C1007.14 86.7833 1005.23 83.845 1002.77 81.385C1000.31 78.925 997.369 77.0117 993.952 75.645C990.672 74.1417 987.187 73.39 983.497 73.39ZM983.497 153.75C976.254 153.75 969.42 152.383 962.997 149.65C956.574 146.78 950.97 142.953 946.187 138.17C941.404 133.387 937.577 127.783 934.707 121.36C931.974 114.937 930.607 108.103 930.607 100.86C930.607 93.6167 931.974 86.7833 934.707 80.36C937.577 73.9367 941.404 68.3333 946.187 63.55C950.97 58.7667 956.574 55.0083 962.997 52.275C969.42 49.5417 976.254 48.175 983.497 48.175C990.74 48.175 997.574 49.5417 1004 52.275C1010.42 55.0083 1016.02 58.7667 1020.81 63.55C1025.59 68.3333 1029.35 73.9367 1032.08 80.36C1034.82 86.7833 1036.18 93.6167 1036.18 100.86V153.75H983.497ZM1141.42 80.36C1139.23 79.13 1136.7 77.9683 1133.83 76.875C1131.1 75.7817 1128.3 74.825 1125.43 74.005C1122.7 73.185 1119.96 72.57 1117.23 72.16C1114.5 71.6133 1111.97 71.34 1109.64 71.34C1101.85 71.34 1095.5 72.5017 1090.58 74.825C1085.66 77.1483 1083.2 80.4283 1083.2 84.665C1083.2 87.8083 1084.84 89.995 1088.12 91.225C1091.4 92.455 1095.5 93.4117 1100.42 94.095C1105.48 94.6417 1110.87 95.1883 1116.61 95.735C1122.35 96.2817 1127.68 97.4433 1132.6 99.22C1137.66 100.86 1141.83 103.525 1145.11 107.215C1148.39 110.905 1150.03 116.098 1150.03 122.795C1150.03 127.852 1148.73 132.293 1146.13 136.12C1143.67 139.947 1140.26 143.158 1135.88 145.755C1131.65 148.352 1126.59 150.333 1120.71 151.7C1114.84 153.067 1108.62 153.75 1102.06 153.75C1098.23 153.75 1094.34 153.545 1090.37 153.135C1086.55 152.588 1082.79 151.905 1079.1 151.085C1075.41 150.265 1071.92 149.308 1068.64 148.215C1065.5 146.985 1062.7 145.755 1060.24 144.525L1066.8 124.025C1071.99 126.485 1077.46 128.467 1083.2 129.97C1088.94 131.337 1094.82 132.02 1100.83 132.02C1103.56 132.02 1106.64 131.952 1110.05 131.815C1113.47 131.678 1116.68 131.268 1119.69 130.585C1122.83 129.902 1125.43 128.808 1127.48 127.305C1129.67 125.802 1130.76 123.752 1130.76 121.155C1130.76 117.328 1129.05 114.595 1125.63 112.955C1122.22 111.315 1117.98 110.153 1112.92 109.47C1107.87 108.787 1102.33 108.24 1096.32 107.83C1090.44 107.42 1084.98 106.463 1079.92 104.96C1074.86 103.457 1070.63 101.133 1067.21 97.99C1063.79 94.71 1062.08 89.9267 1062.08 83.64C1062.08 78.5833 1063.31 74.005 1065.77 69.905C1068.23 65.6683 1071.58 62.115 1075.82 59.245C1080.06 56.2383 1085.04 53.915 1090.78 52.275C1096.52 50.635 1102.61 49.815 1109.03 49.815C1112.17 49.815 1115.59 50.0883 1119.28 50.635C1122.97 51.1817 1126.59 51.9333 1130.14 52.89C1133.83 53.71 1137.32 54.735 1140.6 55.965C1143.88 57.0583 1146.68 58.22 1149 59.45L1141.42 80.36Z" fill="white"/>
</svg>
