<svg xmlns="http://www.w3.org/2000/svg" width="88" height="36" viewBox="0 0 88 36" fill="none"><g clip-path="url(#clip0_37_33)"><path d="M87.9997 29.8613H0.0507812V35.9999H87.9997V29.8613Z" fill="#0CF1A5"></path><path d="M0 25.7052V0.677798H4.37576V2.94139H4.46506C6.44245 0.140675 9.64454 0.0511545 10.8182 0V4.8341C10.091 4.8341 8.56016 5.15382 7.43752 5.7421C5.94491 6.56057 4.69469 8.45329 4.69469 12.0213V25.7052H0Z" fill="#231F20"></path><path d="M25.6805 26.3318C17.2989 26.3318 12.2088 19.3364 12.2088 13.006C12.2088 6.1897 17.924 0 25.6805 0C33.2456 0 39.1522 5.9595 39.1522 13.0956C39.1522 19.1957 34.1513 26.3318 25.6805 26.3318ZM25.6805 4.29698C20.4117 4.29698 16.8907 8.68348 16.8907 13.1467C16.8907 17.6611 20.45 22.0476 25.6805 22.0476C30.7324 22.0476 34.4703 17.8529 34.4703 13.1083C34.4703 8.67069 30.9493 4.29698 25.6805 4.29698Z" fill="#231F20"></path><path d="M64.4253 25.7052V21.8174H64.336C62.5372 24.8867 59.2458 26.3318 55.8651 26.3318C47.4453 26.3318 42.623 19.8735 42.623 13.2746C42.623 7.17442 46.8967 0 55.8651 0C59.3351 0 62.5372 1.44512 64.336 4.19467H64.4253V0.677798H69.1073V25.6924H64.4253V25.7052ZM55.8651 4.29698C50.0988 4.29698 47.305 9.31012 47.305 13.2362C47.305 17.7506 50.8643 22.0476 55.8141 22.0476C60.7257 22.0476 64.5146 18.032 64.5146 13.2362C64.5146 7.90337 60.6874 4.29698 55.8651 4.29698Z" fill="#231F20"></path><path d="M73.0625 25.7052V0.677798H77.4383V2.94139H77.5276C79.5049 0.140675 82.707 0.0511545 83.8807 0V4.8341C83.1535 4.8341 81.6227 5.15382 80.5 5.7421C79.0074 6.56057 77.7572 8.45329 77.7572 12.0213V25.7052H73.0625Z" fill="#231F20"></path><path d="M87.7711 22.9941C87.7783 23.8705 87.4385 24.7139 86.8263 25.3396C86.2141 25.9653 85.3795 26.3221 84.5053 26.3319C82.681 26.3319 81.2266 24.8101 81.2266 22.9941C81.2239 22.5572 81.3074 22.124 81.4722 21.7195C81.6369 21.315 81.8798 20.9471 82.1868 20.6369C82.4939 20.3268 82.859 20.0805 83.2612 19.9122C83.6635 19.7439 84.0949 19.6569 84.5308 19.6562C86.304 19.669 87.7711 21.1653 87.7711 22.9941Z" fill="#231F20"></path><path d="M87.9872 29.8613H77.7048V35.9999H87.9872V29.8613Z" fill="#F03CA5"></path></g><defs><clipPath id="clip0_37_33"><rect width="88" height="36" fill="white"></rect></clipPath></defs></svg>